<svg width="14" height="18" viewBox="0 0 14 18" fill="none" xmlns="http://www.w3.org/2000/svg">
<path d="M9.50001 0.666664H2.00001C1.08334 0.666664 0.333344 1.41666 0.333344 2.33333V15.6667C0.333344 16.5833 1.08334 17.3333 2.00001 17.3333H12C12.9167 17.3333 13.6667 16.5833 13.6667 15.6667V4.83333L9.50001 0.666664ZM2.00001 15.6667V2.33333H8.66668V5.66666H12V15.6667H2.00001ZM10.3333 7.33333V11.5C10.3333 13.3417 8.84168 14.8333 7.00001 14.8333C5.15834 14.8333 3.66668 13.3417 3.66668 11.5V6.08333C3.66668 4.85833 4.71668 3.88333 5.96668 4.00833C7.05001 4.11666 7.83334 5.10833 7.83334 6.2V11.5H6.16668V6.08333C6.16668 5.85 5.98334 5.66666 5.75001 5.66666C5.51668 5.66666 5.33334 5.85 5.33334 6.08333V11.5C5.33334 12.4167 6.08334 13.1667 7.00001 13.1667C7.91668 13.1667 8.66668 12.4167 8.66668 11.5V7.33333H10.3333Z" fill="black"/>
</svg>
